<?xml version="1.0" encoding="UTF-8"?>
<svg id="Layer_1" data-name="Layer 1" xmlns="http://www.w3.org/2000/svg" viewBox="0 0 739.5136 781.5216" shape-rendering="geometricPrecision" fill="#000000">
  <path d="M411.1011,738.5428l97.0447-12.9579c28.4977-3.8051,57.1283.2979,85.6785-1.2557,11.4831-.6249,18.9293-7.7075,19.035-19.269l.3005-32.8821,35.4587-.2547c7.7037-.0555,17.2393-7.0227,17.2408-16.5813l.0616-386.2161-28.0616,27.2342-.1001,347.818-489.8999-.0249.1136-614.9751,489.8864-.006.312,111.5005,26.688-27.8297.1236-86.8005c.0114-8.0093-2.4355-24.0061-13.5183-25.8643L139.9223,0c-13.6272-.0048-22.0559,8.8558-22.0631,22.0435l-.0174,32.193-36.1423,1.2009c-10.2437.3404-16.8021,9.8402-16.8403,18.7969l-.1559,36.5472-47.2374,6.9149c-9.5296,1.395-18.8159,10.2338-17.3032,20.8578l15.1087,106.1116,14.4092,103.8735,18.6261,129.2805,14.6887,108.8284,2.1152,118.8304c.2085,11.7144,8.068,18.9434,20.0146,19.5105l5.9249,39.8763c1.9966,13.4377,12.4982,17.8297,25.1814,16.0101l123.2125-17.6765,102.92-14.4925,68.7368-10.1639ZM528.2804,124.0618c8.2145-8.9757,6.3892-22.385-2.05-27.8837l-265.5749.0316c-7.4426.0009-9.4434,10.5224-9.2686,14.9022.1889,4.7331,3.4515,13.0696,11.0663,13.0662l265.8271-.1163ZM305.8018,453.8745l70.9162,72.2143,186.2753-185.0703,176.5203-174.4316-16.2209-17.3099-32.5911-32.8143-26.972,25.8727-287.551,284.5314-94.3298-97.1081-49.0864,48.5042,73.0395,75.6116ZM578.6582,194.8785c6.6539-2.7993,9.6497-6.8726,9.5233-11.3094-.1127-3.955-4.9639-9.3885-10.3734-9.391l-367.3273-.1719c-9.0075-.0042-13.3634,4.1156-12.8858,11.6248.4157,6.5355,4.9217,9.5537,12.9094,9.5472l368.1537-.2996ZM525.914,249.3578c8.4216-8.0401,14.5698-13.3663,21.365-22.1797l-338.0727-.2665c-7.7166-.0061-11.9986,6.3309-11.7234,11.8464.3409,6.8328,5.0201,10.4154,13.1249,10.4201l315.3062.1797ZM435.8095,303.1704c6.2492-.0002,10.5607-5.1477,10.5664-10.0357.0047-4.0033-4.3789-10.9548-10.4254-10.9566l-227.6096-.0705c-7.3842-.0023-11.2675,5.4069-11.0357,11.1049.2556,6.2842,4.2386,9.9658,11.7989,9.9656l226.7054-.0077Z"/>
  <path d="M411.6003,738.7975l-68.8049,10.1639-103.022,14.4925-123.3346,17.6765c-12.6958,1.8196-23.2078-2.5724-25.2064-16.0101l-5.9308-39.8763c-11.9585-.567-19.8257-7.796-20.0345-19.5105l-2.1173-118.8304-14.7033-108.8284-18.6446-129.2805-14.4235-103.8735L.2547,138.809c-1.5142-10.624,7.7813-19.4628,17.3203-20.8578l47.2842-6.9149.1574-36.6238c.0389-8.9567,6.7037-18.4565,17.1137-18.7969l36.7289-1.2009.0177-32.193c.0072-13.1877,8.5728-22.0483,22.4212-22.0435l510.9479.1781c11.1607,1.8294,13.6247,17.5788,13.6133,25.4641l-.1245,85.4575-26.8755,27.3992-.3165-109.4989-490.6835.0059-.1137,614.9941,490.1137.0247.1007-344.9514,27.8993-27.043-.0612,383.5047c-.0015,9.4915-9.482,16.4098-17.1411,16.4649l-34.7977.2547-.3008,32.8821c-.1058,11.5615-7.5594,18.6441-19.0539,19.269-28.5784,1.5536-57.2374-2.5494-85.7634,1.2557l-97.1409,12.9579ZM138.9983,672.1643c-11.7976-.0004-21.1367-9.0502-21.1391-20.2608l-.1143-568.1928c-8.4901-1.2411-16.248-1.4425-23.8857.3491l.1806,613.1182,490.8194.055-.2308-25.055-445.6301-.0138ZM59.8502,355.4611c1.3462,10.246,1.663,19.3263,6.009,26.8505l-.5636-241.9704-35.8804,4.2619,11.7616,79.1508,9.0662,58.5868,9.6071,73.1204ZM220.7148,737.4209c27.6366-4.0071,53.7083-6.4887,81.7642-12.2428l-187.9489-.6321,3.7774,27.7235,102.4074-14.8485Z"/>
  <polygon points="305.8018 453.8745 232.7623 378.263 281.8487 329.7587 376.1785 426.8668 663.7295 142.3354 690.7015 116.4627 723.2927 149.277 739.5136 166.5869 562.9933 341.0185 376.718 526.0888 305.8018 453.8745"/>
  <path d="M527.4228,124.1781l-264.1312.096c-7.5662.0028-10.808-6.8814-10.9957-10.7899-.1737-3.6168,1.8144-12.3053,9.2095-12.3061l263.8805-.0261c8.3853,4.5408,10.199,15.614,2.0369,23.0261Z"/>
  <path d="M578.6582,194.1781l-368.1537.3014c-7.9877.0065-12.4937-3.0301-12.9094-9.6055-.4776-7.5551,3.8783-11.7001,12.8858-11.6959l367.3273.173c5.4095.0025,10.2607,5.4692,10.3734,9.4485.1264,4.4639-2.8695,8.5621-9.5233,11.3785Z"/>
  <path d="M435.8095,261.1781l-226.7054.0076c-7.5603.0003-11.5433-3.6704-11.7989-9.9358-.2318-5.6811,3.6515-11.0741,11.0357-11.0718l227.6096.0703c6.0465.0019,10.43,6.9326,10.4254,10.9239-.0057,4.8734-4.3172,10.0055-10.5664,10.0058Z"/>
  <path d="M140.2656,672.1781l444.5936.0137.2306,24.9863-491.2306-.0548-.1904-613.0427c8.0549-1.7914,16.2365-1.59,25.1904-.3491l.1206,568.2415c.0024,11.1798,9.4063,20.2048,21.2858,20.2052Z"/>
  <path d="M59.4138,355.4611l-9.6071-73.1204-9.0662-58.5868-11.7616-79.1508,35.8804-4.2619.5636,241.9704c-4.346-7.5242-4.6628-16.6045-6.009-26.8505Z"/>
  <path d="M220.7148,737.0531l-102.4074,14.8485-3.7774-27.7235,187.9489.6321c-28.0558,5.7542-54.1276,8.2357-81.7642,12.2428Z"/>
</svg>